<svg id="visual" viewBox="0 0 900 600" width="900" height="600" xmlns="http://www.w3.org/2000/svg"
	xmlns:xlink="http://www.w3.org/1999/xlink" version="1.1">
	<g stroke-width="1" stroke-linejoin="bevel">
		<path d="M465 272L512 192L379 184Z" fill="#120e00" stroke="#482f00"></path>
		<path d="M512 192L463 102L379 184Z" fill="#2b1a00" stroke="#482f00"></path>
		<path d="M463 102L379 117L379 184Z" fill="#301b00" stroke="#482f00"></path>
		<path d="M638 160L548 150L512 192Z" fill="#070600" stroke="#482f00"></path>
		<path d="M512 192L548 150L463 102Z" fill="#271800" stroke="#482f00"></path>
		<path d="M310 108L302 191L379 184Z" fill="#2b1a00" stroke="#482f00"></path>
		<path d="M379 184L377 348L465 272Z" fill="#301b00" stroke="#482f00"></path>
		<path d="M302 191L377 348L379 184Z" fill="#020200" stroke="#482f00"></path>
		<path d="M379 117L310 108L379 184Z" fill="#070600" stroke="#482f00"></path>
		<path d="M286 0L310 108L379 117Z" fill="#171100" stroke="#482f00"></path>
		<path d="M440 410L519 356L465 272Z" fill="#120e00" stroke="#482f00"></path>
		<path d="M465 272L628 323L512 192Z" fill="#171100" stroke="#482f00"></path>
		<path d="M302 191L296 338L377 348Z" fill="#070600" stroke="#482f00"></path>
		<path d="M628 323L638 160L512 192Z" fill="#231700" stroke="#482f00"></path>
		<path d="M496 0L437 0L463 102Z" fill="#1f1500" stroke="#482f00"></path>
		<path d="M153 141L247 242L302 191Z" fill="#231700" stroke="#482f00"></path>
		<path d="M302 191L247 242L296 338Z" fill="#231700" stroke="#482f00"></path>
		<path d="M377 348L440 410L465 272Z" fill="#1f1500" stroke="#482f00"></path>
		<path d="M310 400L440 410L377 348Z" fill="#271800" stroke="#482f00"></path>
		<path d="M496 0L463 102L548 150Z" fill="#231700" stroke="#482f00"></path>
		<path d="M463 102L437 0L379 117Z" fill="#271800" stroke="#482f00"></path>
		<path d="M440 410L552 383L519 356Z" fill="#1b1300" stroke="#482f00"></path>
		<path d="M519 356L628 323L465 272Z" fill="#2b1a00" stroke="#482f00"></path>
		<path d="M626 0L496 0L548 150Z" fill="#231700" stroke="#482f00"></path>
		<path d="M552 383L628 323L519 356Z" fill="#231700" stroke="#482f00"></path>
		<path d="M153 380L310 400L296 338Z" fill="#070600" stroke="#482f00"></path>
		<path d="M296 338L310 400L377 348Z" fill="#1f1500" stroke="#482f00"></path>
		<path d="M437 0L286 0L379 117Z" fill="#020200" stroke="#482f00"></path>
		<path d="M153 141L193 273L247 242Z" fill="#171100" stroke="#482f00"></path>
		<path d="M153 141L302 191L310 108Z" fill="#070600" stroke="#482f00"></path>
		<path d="M247 242L193 273L296 338Z" fill="#120e00" stroke="#482f00"></path>
		<path d="M658 392L681 336L628 323Z" fill="#070600" stroke="#482f00"></path>
		<path d="M628 323L749 217L638 160Z" fill="#1f1500" stroke="#482f00"></path>
		<path d="M748 64L626 0L638 160Z" fill="#171100" stroke="#482f00"></path>
		<path d="M638 160L626 0L548 150Z" fill="#020200" stroke="#482f00"></path>
		<path d="M552 383L658 392L628 323Z" fill="#231700" stroke="#482f00"></path>
		<path d="M584 479L658 392L552 383Z" fill="#171100" stroke="#482f00"></path>
		<path d="M330 474L455 497L440 410Z" fill="#1f1500" stroke="#482f00"></path>
		<path d="M440 410L455 497L552 383Z" fill="#271800" stroke="#482f00"></path>
		<path d="M147 537L330 474L310 400Z" fill="#070600" stroke="#482f00"></path>
		<path d="M310 400L330 474L440 410Z" fill="#070600" stroke="#482f00"></path>
		<path d="M286 0L233 0L310 108Z" fill="#1f1500" stroke="#482f00"></path>
		<path d="M233 0L153 141L310 108Z" fill="#020200" stroke="#482f00"></path>
		<path d="M752 290L749 217L681 336Z" fill="#070600" stroke="#482f00"></path>
		<path d="M681 336L749 217L628 323Z" fill="#1b1300" stroke="#482f00"></path>
		<path d="M455 497L584 479L552 383Z" fill="#1f1500" stroke="#482f00"></path>
		<path d="M769 429L752 290L681 336Z" fill="#171100" stroke="#482f00"></path>
		<path d="M769 429L681 336L658 392Z" fill="#171100" stroke="#482f00"></path>
		<path d="M117 152L120 160L153 141Z" fill="#2b1a00" stroke="#482f00"></path>
		<path d="M153 141L120 160L193 273Z" fill="#0d0a00" stroke="#482f00"></path>
		<path d="M255 600L357 522L330 474Z" fill="#0d0a00" stroke="#482f00"></path>
		<path d="M330 474L357 522L455 497Z" fill="#020200" stroke="#482f00"></path>
		<path d="M698 600L684 491L584 479Z" fill="#070600" stroke="#482f00"></path>
		<path d="M60 0L117 152L153 141Z" fill="#0d0a00" stroke="#482f00"></path>
		<path d="M772 126L748 64L638 160Z" fill="#271800" stroke="#482f00"></path>
		<path d="M772 126L638 160L749 217Z" fill="#271800" stroke="#482f00"></path>
		<path d="M786 246L772 126L749 217Z" fill="#2b1a00" stroke="#482f00"></path>
		<path d="M58 327L153 380L193 273Z" fill="#171100" stroke="#482f00"></path>
		<path d="M193 273L153 380L296 338Z" fill="#271800" stroke="#482f00"></path>
		<path d="M58 327L193 273L120 160Z" fill="#271800" stroke="#482f00"></path>
		<path d="M752 290L786 246L749 217Z" fill="#070600" stroke="#482f00"></path>
		<path d="M754 0L746 0L748 64Z" fill="#120e00" stroke="#482f00"></path>
		<path d="M748 64L746 0L626 0Z" fill="#231700" stroke="#482f00"></path>
		<path d="M900 0L754 0L748 64Z" fill="#070600" stroke="#482f00"></path>
		<path d="M546 600L584 479L455 497Z" fill="#171100" stroke="#482f00"></path>
		<path d="M584 479L684 491L658 392Z" fill="#120e00" stroke="#482f00"></path>
		<path d="M900 353L900 262L786 246Z" fill="#1f1500" stroke="#482f00"></path>
		<path d="M684 491L769 429L658 392Z" fill="#301b00" stroke="#482f00"></path>
		<path d="M255 600L441 600L357 522Z" fill="#2b1a00" stroke="#482f00"></path>
		<path d="M357 522L441 600L455 497Z" fill="#120e00" stroke="#482f00"></path>
		<path d="M441 600L465 600L455 497Z" fill="#120e00" stroke="#482f00"></path>
		<path d="M0 227L58 327L120 160Z" fill="#301b00" stroke="#482f00"></path>
		<path d="M147 537L255 600L330 474Z" fill="#020200" stroke="#482f00"></path>
		<path d="M465 600L546 600L455 497Z" fill="#120e00" stroke="#482f00"></path>
		<path d="M684 491L821 541L769 429Z" fill="#1f1500" stroke="#482f00"></path>
		<path d="M58 327L51 361L153 380Z" fill="#1f1500" stroke="#482f00"></path>
		<path d="M233 0L60 0L153 141Z" fill="#171100" stroke="#482f00"></path>
		<path d="M0 152L0 227L120 160Z" fill="#1f1500" stroke="#482f00"></path>
		<path d="M58 327L0 353L51 361Z" fill="#1f1500" stroke="#482f00"></path>
		<path d="M147 537L310 400L153 380Z" fill="#231700" stroke="#482f00"></path>
		<path d="M0 152L120 160L117 152Z" fill="#120e00" stroke="#482f00"></path>
		<path d="M79 507L147 537L153 380Z" fill="#301b00" stroke="#482f00"></path>
		<path d="M60 0L0 152L117 152Z" fill="#0d0a00" stroke="#482f00"></path>
		<path d="M786 246L900 155L772 126Z" fill="#020200" stroke="#482f00"></path>
		<path d="M772 126L900 129L748 64Z" fill="#231700" stroke="#482f00"></path>
		<path d="M900 262L900 155L786 246Z" fill="#231700" stroke="#482f00"></path>
		<path d="M900 353L786 246L752 290Z" fill="#020200" stroke="#482f00"></path>
		<path d="M900 155L900 129L772 126Z" fill="#171100" stroke="#482f00"></path>
		<path d="M147 537L199 600L255 600Z" fill="#301b00" stroke="#482f00"></path>
		<path d="M0 227L0 353L58 327Z" fill="#301b00" stroke="#482f00"></path>
		<path d="M51 361L79 507L153 380Z" fill="#070600" stroke="#482f00"></path>
		<path d="M546 600L698 600L584 479Z" fill="#301b00" stroke="#482f00"></path>
		<path d="M769 429L900 353L752 290Z" fill="#171100" stroke="#482f00"></path>
		<path d="M0 410L79 507L51 361Z" fill="#271800" stroke="#482f00"></path>
		<path d="M147 537L94 600L199 600Z" fill="#0d0a00" stroke="#482f00"></path>
		<path d="M900 464L900 353L769 429Z" fill="#120e00" stroke="#482f00"></path>
		<path d="M0 353L0 410L51 361Z" fill="#0d0a00" stroke="#482f00"></path>
		<path d="M60 0L0 0L0 152Z" fill="#271800" stroke="#482f00"></path>
		<path d="M900 129L900 0L748 64Z" fill="#171100" stroke="#482f00"></path>
		<path d="M698 600L821 541L684 491Z" fill="#1f1500" stroke="#482f00"></path>
		<path d="M821 541L900 464L769 429Z" fill="#231700" stroke="#482f00"></path>
		<path d="M0 600L94 600L79 507Z" fill="#070600" stroke="#482f00"></path>
		<path d="M79 507L94 600L147 537Z" fill="#301b00" stroke="#482f00"></path>
		<path d="M698 600L800 600L821 541Z" fill="#070600" stroke="#482f00"></path>
		<path d="M821 541L900 600L900 464Z" fill="#070600" stroke="#482f00"></path>
		<path d="M0 410L0 505L79 507Z" fill="#0d0a00" stroke="#482f00"></path>
		<path d="M0 505L0 600L79 507Z" fill="#0d0a00" stroke="#482f00"></path>
		<path d="M800 600L900 600L821 541Z" fill="#1f1500" stroke="#482f00"></path>
	</g>
</svg>